<svg width="20" height="23" viewBox="0 0 20 23" fill="none" xmlns="http://www.w3.org/2000/svg">
<g clip-path="url(#clip0_10_33)">
<path d="M16.7021 12.2192C16.7367 15.6998 19.9624 16.8581 19.9981 16.8729C19.9709 16.9545 19.4827 18.5235 18.2987 20.1441C17.2751 21.5452 16.2128 22.9412 14.5393 22.9701C12.8949 22.9984 12.3662 22.0569 10.4862 22.0569C8.60682 22.0569 8.01935 22.9412 6.46278 22.9985C4.84745 23.0558 3.61735 21.4834 2.58532 20.0874C0.476406 17.2319 -1.13524 12.0184 1.02879 8.4992C2.10384 6.75156 4.02503 5.64487 6.11031 5.6165C7.69652 5.58816 9.19367 6.61595 10.1634 6.61595C11.1325 6.61595 12.9519 5.37994 14.8645 5.56146C15.6653 5.59268 17.9129 5.86439 19.3561 7.84292C19.2398 7.91044 16.6743 9.30924 16.7021 12.2192ZM13.6118 3.6723C14.4694 2.70007 15.0466 1.34665 14.8891 0C13.6529 0.046531 12.1582 0.771479 11.2715 1.74317C10.4769 2.60364 9.78097 3.98089 9.96873 5.30088C11.3466 5.40072 12.7541 4.64513 13.6118 3.6723Z" fill="black"/>
</g>
<defs>
<clipPath id="clip0_10_33">
<rect width="20" height="23" fill="white"/>
</clipPath>
</defs>
</svg>
