<svg width="20" height="20" viewBox="0 0 20 20" fill="none" xmlns="http://www.w3.org/2000/svg">
<path d="M19.1297 8.01313C18.7152 7.61101 18.2999 7.20588 17.8838 6.79776C17.8721 6.23248 17.8574 5.66747 17.8397 5.10272C17.8163 4.34628 17.4886 3.62464 16.9304 3.06405C16.3722 2.50347 15.6482 2.17861 14.8926 2.15477C14.3278 2.13731 13.7629 2.12271 13.1981 2.11098C12.7909 1.69556 12.3871 1.28066 11.9869 0.866285C11.4451 0.310393 10.7437 -0.000390554 9.99747 3.68348e-07C9.25124 0.000391291 8.54947 0.312739 8.01116 0.866285C7.60885 1.28145 7.20381 1.69726 6.79604 2.11372C6.2312 2.12519 5.66649 2.13978 5.10191 2.1575C3.54625 2.21067 2.20749 3.55036 2.15443 5.10506C2.13701 5.67034 2.12232 6.23535 2.11035 6.8001C1.69427 7.20796 1.27896 7.61296 0.864426 8.01509C0.310897 8.55417 0 9.25783 0 10.0006C0 10.7433 0.308947 11.447 0.864426 11.988C1.27896 12.3899 1.69505 12.7945 2.1127 13.2019C2.12388 13.7671 2.13844 14.3325 2.15638 14.8981C2.18018 15.6557 2.50746 16.3754 3.06528 16.9367C3.6231 17.4981 4.34671 17.8222 5.10347 17.8456C5.66831 17.8636 6.23315 17.8783 6.798 17.8898C7.20524 18.305 7.60976 18.7196 8.01155 19.1337C8.55103 19.6896 9.25319 20.0004 10.001 20C10.7488 19.9996 11.449 19.6896 11.9904 19.1341C12.3922 18.7192 12.7968 18.3038 13.2043 17.8878C13.7692 17.8761 14.3339 17.8614 14.8985 17.8437C16.4537 17.7909 17.7925 16.4512 17.8456 14.8961C17.8633 14.3314 17.8778 13.7666 17.8893 13.2019C18.3053 12.7937 18.7208 12.3886 19.1356 11.9865C19.6891 11.4478 20 10.7449 20 9.99941C20 9.25392 19.684 8.55417 19.1297 8.01313ZM14.9632 8.73282C13.2789 10.4869 11.5676 12.2801 9.88473 14.0588C9.74798 14.204 9.58311 14.3197 9.40021 14.3989C9.21731 14.4781 9.02021 14.519 8.82097 14.5193H8.81434C8.61531 14.5179 8.41856 14.4767 8.23567 14.398C8.05278 14.3193 7.88745 14.2048 7.74941 14.0611C6.84962 13.1299 5.94696 12.2021 5.04145 11.2777C4.90452 11.1397 4.79649 10.9757 4.72371 10.7953C4.65093 10.6149 4.61486 10.4217 4.61762 10.2271C4.62038 10.0325 4.66192 9.84048 4.73979 9.66221C4.81767 9.48394 4.93031 9.32306 5.07109 9.18903C5.35479 8.91432 5.73523 8.76297 6.1297 8.76787C6.52416 8.77278 6.90074 8.93355 7.17755 9.21522C7.7156 9.76799 8.25431 10.3223 8.79366 10.8782C10.1297 9.47519 11.4724 8.06356 12.794 6.67422C13.3549 6.08276 14.2907 6.07299 14.8922 6.64373C15.4938 7.21448 15.5285 8.14449 14.9632 8.73282Z" fill="#CC291F"/>
</svg>
