<svg width="10" height="10" viewBox="0 0 10 10" fill="none" xmlns="http://www.w3.org/2000/svg">
<path d="M5 4C4.80302 4 4.60796 4.0388 4.42597 4.11418C4.24399 4.18956 4.07863 4.30005 3.93934 4.43934C3.80005 4.57863 3.68956 4.74399 3.61418 4.92597C3.5388 5.10796 3.5 5.30302 3.5 5.5C3.5 5.69698 3.5388 5.89204 3.61418 6.07403C3.68956 6.25601 3.80005 6.42137 3.93934 6.56066C4.07863 6.69995 4.24399 6.81044 4.42597 6.88582C4.60796 6.9612 4.80302 7 5 7C5.39782 7 5.77936 6.84196 6.06066 6.56066C6.34196 6.27936 6.5 5.89782 6.5 5.5C6.5 5.10218 6.34196 4.72064 6.06066 4.43934C5.77936 4.15804 5.39782 4 5 4ZM9 2.5H7.8C7.71364 2.49606 7.6303 2.46699 7.56022 2.41637C7.49014 2.36574 7.43637 2.29575 7.4055 2.215L7.095 1.2845C7.06391 1.20384 7.01 1.13397 6.93985 1.08345C6.8697 1.03293 6.78636 1.00393 6.7 1H3.3C3.135 1 2.957 1.128 2.9055 1.284L2.5945 2.215C2.56358 2.29572 2.50979 2.36567 2.43972 2.41629C2.36965 2.46691 2.28635 2.496 2.2 2.5H1C0.45 2.5 0 2.95 0 3.5V8C0 8.55 0.45 9 1 9H9C9.55 9 10 8.55 10 8V3.5C10 2.95 9.55 2.5 9 2.5ZM5 8C4.33696 8 3.70107 7.73661 3.23223 7.26777C2.76339 6.79893 2.5 6.16304 2.5 5.5C2.5 4.83696 2.76339 4.20107 3.23223 3.73223C3.70107 3.26339 4.33696 3 5 3C5.66304 3 6.29893 3.26339 6.76777 3.73223C7.23661 4.20107 7.5 4.83696 7.5 5.5C7.5 6.16304 7.23661 6.79893 6.76777 7.26777C6.29893 7.73661 5.66304 8 5 8ZM8.75 4.1C8.65717 4.1 8.56815 4.06313 8.50251 3.99749C8.43688 3.93185 8.4 3.84283 8.4 3.75C8.4 3.65717 8.43688 3.56815 8.50251 3.50251C8.56815 3.43687 8.65717 3.4 8.75 3.4C8.84283 3.4 8.93185 3.43687 8.99749 3.50251C9.06312 3.56815 9.1 3.65717 9.1 3.75C9.1 3.84283 9.06312 3.93185 8.99749 3.99749C8.93185 4.06313 8.84283 4.1 8.75 4.1Z" fill="#58565D"/>
</svg>
