<svg width="10" height="10" viewBox="0 0 10 10" fill="none" xmlns="http://www.w3.org/2000/svg">
<path d="M9.56486 4.00657C9.3576 3.8055 9.14994 3.60294 8.9419 3.39888C8.93605 3.11624 8.9287 2.83373 8.91986 2.55136C8.90816 2.17314 8.74432 1.81232 8.46521 1.53203C8.18611 1.25173 7.82411 1.08931 7.44632 1.07738C7.16389 1.06865 6.88147 1.06136 6.59905 1.05549C6.39543 0.847781 6.19356 0.640332 5.99345 0.433143C5.72253 0.155197 5.37185 -0.000195277 4.99873 1.84174e-07C4.62562 0.000195646 4.27474 0.156369 4.00558 0.433143C3.80443 0.640723 3.60191 0.848628 3.39802 1.05686C3.1156 1.06259 2.83325 1.06989 2.55095 1.07875C1.77313 1.10533 1.10374 1.77518 1.07722 2.55253C1.06851 2.83517 1.06116 3.11767 1.05518 3.40005C0.847133 3.60398 0.639478 3.80648 0.432213 4.00754C0.155449 4.27709 0 4.62892 0 5.00029C0 5.37167 0.154473 5.7235 0.432213 5.99402C0.639478 6.19495 0.847523 6.39726 1.05635 6.60093C1.06194 6.88356 1.06922 7.16627 1.07819 7.44903C1.09009 7.82784 1.25373 8.18768 1.53264 8.46836C1.81155 8.74905 2.17335 8.91108 2.55173 8.92281C2.83416 8.9318 3.11658 8.93917 3.399 8.9449C3.60262 9.15248 3.80488 9.3598 4.00577 9.56686C4.27552 9.8448 4.62659 10.0002 5.00049 10C5.37438 9.9998 5.72448 9.8448 5.9952 9.56705C6.1961 9.3596 6.39842 9.15189 6.60217 8.94392C6.88459 8.93806 7.16695 8.9307 7.44924 8.92183C8.22687 8.89545 8.89626 8.2256 8.92278 7.44806C8.93163 7.16568 8.93891 6.8833 8.94463 6.60093C9.15267 6.39686 9.36039 6.1943 9.56779 5.99324C9.84455 5.72389 10 5.37245 10 4.99971C10 4.62696 9.84202 4.27709 9.56486 4.00657ZM7.48162 4.36641C6.63943 5.24345 5.78378 6.14003 4.94237 7.02938C4.87399 7.10198 4.79156 7.15985 4.7001 7.19944C4.60865 7.23903 4.51011 7.25951 4.41049 7.25963H4.40717C4.30766 7.25897 4.20928 7.23836 4.11784 7.19902C4.02639 7.15967 3.94373 7.10239 3.87471 7.03055C3.42481 6.56496 2.97348 6.10107 2.52072 5.63887C2.45226 5.56987 2.39825 5.48786 2.36186 5.39765C2.32546 5.30744 2.30743 5.21086 2.30881 5.11356C2.31019 5.01627 2.33096 4.92024 2.3699 4.8311C2.40883 4.74197 2.46515 4.66153 2.53555 4.59452C2.6774 4.45716 2.86762 4.38148 3.06485 4.38394C3.26208 4.38639 3.45037 4.46677 3.58877 4.60761C3.8578 4.88399 4.12715 5.16116 4.39683 5.4391C5.06485 4.73759 5.73619 4.03178 6.39699 3.33711C6.67746 3.04138 7.14537 3.03649 7.44612 3.32187C7.74688 3.60724 7.76423 4.07224 7.48162 4.36641Z" fill="#07892A"/>
</svg>
