<svg width="20" height="20" viewBox="0 0 20 20" fill="none" xmlns="http://www.w3.org/2000/svg">
<path d="M16.5 11.8023C15.2708 11.8023 14.2708 12.8023 14.2708 14.0315C14.2708 15.2604 15.2708 16.2604 16.5 16.2604C17.7294 16.2604 18.7292 15.2604 18.7292 14.0315C18.7292 12.8023 17.7292 11.8023 16.5 11.8023ZM16.5 15.0102C15.96 15.0102 15.5208 14.571 15.5208 14.0313C15.5208 13.4913 15.96 13.0521 16.5 13.0521C17.04 13.0521 17.4792 13.4914 17.4792 14.0313C17.4792 14.5711 17.04 15.0102 16.5 15.0102ZM2.79168 11.8023C1.5625 11.8023 0.5625 12.8023 0.5625 14.0315C0.5625 15.2604 1.5625 16.2604 2.79168 16.2604C4.02086 16.2604 5.02086 15.2604 5.02086 14.0315C5.02082 12.8023 4.02082 11.8023 2.79168 11.8023ZM2.79168 15.0102C2.25168 15.0102 1.8125 14.571 1.8125 14.0313C1.8125 13.4913 2.25187 13.0521 2.79168 13.0521C3.33168 13.0521 3.77086 13.4914 3.77086 14.0313C3.77086 14.5711 3.33168 15.0102 2.79168 15.0102Z" fill="black"/>
<path d="M19.9311 8.85001L18.3269 5.72501C18.2744 5.62274 18.1947 5.53693 18.0966 5.47702C17.9985 5.41711 17.8858 5.38542 17.7708 5.38544H14.125V6.63544H17.3892L18.75 9.28645V12.9479H18.0625V14.1979H19.375C19.7202 14.1979 20 13.9183 20 13.5729V9.1354C20 9.03626 19.9764 8.93833 19.9311 8.85001ZM8.5625 12.9479H14.8958V14.1979H8.5625V12.9479Z" fill="black"/>
<path d="M14.125 3.73956H0.625C0.279805 3.73956 0 4.01937 0 4.36456V13.5729C0 13.9181 0.279805 14.1979 0.625 14.1979H1.25V4.98956H13.5V13.5729H14.75V4.36456C14.75 4.01937 14.4702 3.73956 14.125 3.73956Z" fill="black"/>
<path d="M7.02093 11.8023C5.79175 11.8023 4.79175 12.8023 4.79175 14.0315C4.79175 15.2604 5.79175 16.2604 7.02093 16.2604C8.25011 16.2604 9.25011 15.2604 9.25011 14.0315C9.25011 12.8023 8.25011 11.8023 7.02093 11.8023ZM7.02093 15.0102C6.48093 15.0102 6.04175 14.571 6.04175 14.0313C6.04175 13.4913 6.48093 13.0521 7.02093 13.0521C7.56093 13.0521 8.00011 13.4914 8.00011 14.0313C8.00011 14.5711 7.56073 15.0102 7.02093 15.0102Z" fill="black"/>
<path d="M4.33325 12.9479H5.49993V14.1979H4.33325V12.9479ZM14.1249 8.51044H19.3749V9.76044H14.1249V8.51044Z" fill="black"/>
</svg>
