<svg width="10" height="10" viewBox="0 0 10 10" fill="none" xmlns="http://www.w3.org/2000/svg">
<path d="M3.74999 4.16671H4.16666C4.27716 4.16671 4.38314 4.12281 4.46128 4.04467C4.53942 3.96653 4.58332 3.86055 4.58332 3.75004C4.58332 3.63953 4.53942 3.53355 4.46128 3.45541C4.38314 3.37727 4.27716 3.33337 4.16666 3.33337H3.74999C3.63948 3.33337 3.5335 3.37727 3.45536 3.45541C3.37722 3.53355 3.33332 3.63953 3.33332 3.75004C3.33332 3.86055 3.37722 3.96653 3.45536 4.04467C3.5335 4.12281 3.63948 4.16671 3.74999 4.16671ZM3.74999 5.00004C3.63948 5.00004 3.5335 5.04394 3.45536 5.12208C3.37722 5.20022 3.33332 5.3062 3.33332 5.41671C3.33332 5.52721 3.37722 5.63319 3.45536 5.71134C3.5335 5.78947 3.63948 5.83337 3.74999 5.83337H6.24999C6.3605 5.83337 6.46648 5.78947 6.54462 5.71134C6.62276 5.63319 6.66666 5.52721 6.66666 5.41671C6.66666 5.3062 6.62276 5.20022 6.54462 5.12208C6.46648 5.04394 6.3605 5.00004 6.24999 5.00004H3.74999ZM8.33332 3.72504C8.32898 3.68676 8.3206 3.64905 8.30832 3.61254V3.57504C8.28829 3.5322 8.26157 3.49282 8.22916 3.45837L5.72916 0.958374C5.69471 0.925964 5.65533 0.899241 5.61249 0.879207C5.60005 0.877441 5.58743 0.877441 5.57499 0.879207C5.53266 0.854933 5.48592 0.839351 5.43749 0.833374H2.91666C2.58514 0.833374 2.26719 0.96507 2.03277 1.19949C1.79835 1.43391 1.66666 1.75185 1.66666 2.08337V7.91671C1.66666 8.24823 1.79835 8.56617 2.03277 8.80059C2.26719 9.03501 2.58514 9.16671 2.91666 9.16671H7.08332C7.41484 9.16671 7.73279 9.03501 7.96721 8.80059C8.20163 8.56617 8.33332 8.24823 8.33332 7.91671V3.75004C8.33332 3.75004 8.33332 3.75004 8.33332 3.72504ZM5.83332 2.25421L6.91249 3.33337H6.24999C6.13948 3.33337 6.0335 3.28948 5.95536 3.21133C5.87722 3.13319 5.83332 3.02721 5.83332 2.91671V2.25421ZM7.49999 7.91671C7.49999 8.02721 7.45609 8.1332 7.37795 8.21134C7.29981 8.28948 7.19383 8.33337 7.08332 8.33337H2.91666C2.80615 8.33337 2.70017 8.28948 2.62203 8.21134C2.54389 8.1332 2.49999 8.02721 2.49999 7.91671V2.08337C2.49999 1.97287 2.54389 1.86689 2.62203 1.78875C2.70017 1.71061 2.80615 1.66671 2.91666 1.66671H4.99999V2.91671C4.99999 3.24823 5.13169 3.56617 5.36611 3.80059C5.60053 4.03501 5.91847 4.16671 6.24999 4.16671H7.49999V7.91671ZM6.24999 6.66671H3.74999C3.63948 6.66671 3.5335 6.71061 3.45536 6.78875C3.37722 6.86689 3.33332 6.97287 3.33332 7.08337C3.33332 7.19388 3.37722 7.29986 3.45536 7.378C3.5335 7.45614 3.63948 7.50004 3.74999 7.50004H6.24999C6.3605 7.50004 6.46648 7.45614 6.54462 7.378C6.62276 7.29986 6.66666 7.19388 6.66666 7.08337C6.66666 6.97287 6.62276 6.86689 6.54462 6.78875C6.46648 6.71061 6.3605 6.66671 6.24999 6.66671Z" fill="#58565D"/>
</svg>
