<svg width="20" height="20" viewBox="0 0 20 20" fill="none" xmlns="http://www.w3.org/2000/svg">
<g clip-path="url(#clip0_10_27)">
<path d="M19.9894 10.1871C19.9894 9.36773 19.9214 8.7698 19.7741 8.14972H10.1992V11.848H15.8195C15.7062 12.7671 15.0943 14.1512 13.7345 15.0813L13.7155 15.2051L16.7429 17.497L16.9526 17.5174C18.8789 15.779 19.9894 13.2211 19.9894 10.1871Z" fill="#4285F4"/>
<path d="M10.1992 19.9313C12.9527 19.9313 15.2642 19.0454 16.9526 17.5174L13.7345 15.0813C12.8734 15.6682 11.7176 16.0779 10.1992 16.0779C7.50236 16.0779 5.21346 14.3395 4.39753 11.9366L4.27793 11.9466L1.12997 14.3273L1.08881 14.4391C2.76582 17.6945 6.21054 19.9313 10.1992 19.9313Z" fill="#34A853"/>
<path d="M4.39754 11.9366C4.18225 11.3166 4.05765 10.6521 4.05765 9.96565C4.05765 9.27908 4.18225 8.61473 4.38621 7.99466L4.38051 7.8626L1.1931 5.44366L1.08882 5.49214C0.397637 6.84305 0.0010376 8.36008 0.0010376 9.96565C0.0010376 11.5712 0.397637 13.0882 1.08882 14.4391L4.39754 11.9366Z" fill="#FBBC05"/>
<path d="M10.1992 3.85336C12.1142 3.85336 13.4059 4.66168 14.1425 5.33718L17.0206 2.59107C15.253 0.985496 12.9527 0 10.1992 0C6.21054 0 2.76582 2.23672 1.08881 5.49214L4.3862 7.99466C5.21346 5.59183 7.50236 3.85336 10.1992 3.85336Z" fill="#EB4335"/>
</g>
<defs>
<clipPath id="clip0_10_27">
<rect width="20" height="20" fill="white"/>
</clipPath>
</defs>
</svg>
