<svg width="13" height="13" viewBox="0 0 13 13" fill="none" xmlns="http://www.w3.org/2000/svg">
<g clip-path="url(#clip0_575_44)">
<path d="M2.43749 11.5879H10.5624C11.1251 11.5879 11.578 11.135 11.578 10.5723V4.49061C11.578 1.60587 1.42188 1.36903 1.42188 4.49061V10.5723C1.42188 11.135 1.87484 11.5879 2.43749 11.5879Z" fill="#A8D0FF"/>
<path d="M5.9893 0.545369L0.913799 3.47538C0.428286 3.75583 0.261889 4.37666 0.542068 4.86233C0.822469 5.34839 1.03767 5.51494 1.52356 5.23426L6.04927 2.85609C6.37135 2.67014 6.678 2.69854 6.96286 2.86301L11.4766 5.23426C11.9623 5.5144 12.1769 5.34791 12.4573 4.86233C12.7376 4.37682 12.5715 3.75603 12.0862 3.47538L7.00749 0.543386C6.94453 0.510145 6.75397 0.4101 6.49988 0.407507C6.2703 0.405164 6.04492 0.516258 5.9893 0.545369Z" fill="#0066FF"/>
<path d="M4.29955 5.69379C3.34469 5.69379 2.57593 6.46255 2.57593 7.41741V11.5793H6.02317V7.41741C6.02317 6.46255 5.25441 5.69379 4.29955 5.69379Z" fill="#CC291F"/>
<path d="M0.914057 10.7655H12.0858C12.3671 10.7655 12.5936 10.992 12.5936 11.2733V12.0858C12.5936 12.3671 12.3671 12.5936 12.0858 12.5936H0.914057C0.632732 12.5936 0.40625 12.3671 0.40625 12.0858V11.2733C0.40625 10.992 0.632732 10.7655 0.914057 10.7655ZM7.47747 6.23334H10.0038C10.2851 6.23334 10.5116 6.45982 10.5116 6.74115V8.79777C10.5116 9.07909 10.2851 9.30557 10.0038 9.30557H7.47747C7.19614 9.30557 6.96966 9.07909 6.96966 8.79777V6.74115C6.96966 6.45982 7.19614 6.23334 7.47747 6.23334Z" fill="#00A1FF"/>
</g>
<defs>
<clipPath id="clip0_575_44">
<rect width="13" height="13" fill="white"/>
</clipPath>
</defs>
</svg>
