<svg width="20" height="20" viewBox="0 0 20 20" fill="none" xmlns="http://www.w3.org/2000/svg">
<g clip-path="url(#clip0_399_15)">
<path d="M19.0625 10.9375H18.75C18.4062 10.9375 18.125 10.6563 18.125 10.3125C18.125 9.96875 18.4062 9.6875 18.75 9.6875H19.0625C19.25 9.6875 19.375 9.8125 19.375 10V10.625C19.375 10.8125 19.25 10.9375 19.0625 10.9375ZM5 13.125C5.125 13.2188 5.25 13.3125 5.34375 13.4375H5V13.125Z" stroke="black" stroke-miterlimit="10"/>
<path d="M8.75 8.75V12.8125H8.40625L5.625 9.75V8.75H8.75Z" stroke="black" stroke-miterlimit="10"/>
<path d="M18.375 7.8125H15V3.75H16.5625C17.4375 4.84375 18 6.3125 18.375 7.8125ZM19.0313 12.4063C18.5 12.0625 17.875 11.875 17.1875 11.875C16.3437 11.875 15.5937 12.1562 15 12.6562V8.4375H18.5C18.5625 8.65625 18.5937 8.875 18.625 9.0625C18 9.125 17.5 9.65625 17.5 10.3125C17.5 11 18.0625 11.5625 18.75 11.5625H18.9688C19 11.875 19 12.1563 19.0313 12.4063ZM14.3125 13.4375C13.9687 13.9688 13.75 14.625 13.75 15.3125V15.625H6.875C6.875 13.5625 5.1875 11.875 3.125 11.875C2.3125 11.875 1.5625 12.125 0.9375 12.5937V10H5L8.125 13.4375H14.3125ZM19.5625 16.25C19.25 17.25 18.3125 18 17.1875 18C16.0625 18 15.125 17.25 14.8125 16.25H19.5625Z" stroke="black" stroke-miterlimit="10"/>
<path d="M20 15.625H14.375V15.3125C14.375 13.75 15.625 12.5 17.1875 12.5C18.75 12.5 20 13.75 20 15.3125V15.625ZM5.5625 16.25C5.28125 17.3438 4.3125 18.125 3.125 18.125C1.9375 18.125 0.96875 17.3438 0.6875 16.25H5.5625ZM6.25 15.625H0C0 13.9062 1.40625 12.5 3.125 12.5C4.84375 12.5 6.25 13.9062 6.25 15.625ZM0.9375 10V5.625C0.9375 3.5625 2.625 1.875 4.6875 1.875H15.9375C16.9687 1.875 17.8125 2.71875 17.8125 3.75H5.9375C5.40625 3.75 5 4.15625 5 4.6875V10H0.9375Z" stroke="black" stroke-miterlimit="10"/>
<path d="M10.625 3.75H9.375V13.4375H10.625V3.75Z" stroke="black" stroke-miterlimit="10"/>
<path d="M12.8125 10.9375V8.75C12.8125 8.21875 12.4063 7.8125 11.875 7.8125H11.25V12.8125H14.375V11.875C14.375 11.3437 13.9688 10.9375 13.4375 10.9375H12.8125Z" stroke="black" stroke-miterlimit="10"/>
</g>
<defs>
<clipPath id="clip0_399_15">
<rect width="20" height="20" fill="white"/>
</clipPath>
</defs>
</svg>
