<svg width="20" height="20" viewBox="0 0 20 20" fill="none" xmlns="http://www.w3.org/2000/svg">
<path d="M17.0833 16.6667H13.75C13.6395 16.6667 13.5335 16.7106 13.4554 16.7887C13.3772 16.8668 13.3333 16.9728 13.3333 17.0833C13.3333 17.1938 13.3772 17.2998 13.4554 17.378C13.5335 17.4561 13.6395 17.5 13.75 17.5H17.0833C17.1938 17.5 17.2998 17.4561 17.378 17.378C17.4561 17.2998 17.5 17.1938 17.5 17.0833C17.5 16.9728 17.4561 16.8668 17.378 16.7887C17.2998 16.7106 17.1938 16.6667 17.0833 16.6667ZM19.1667 8.38333V6.66667C19.1667 6.22464 18.9911 5.80072 18.6785 5.48816C18.3659 5.17559 17.942 5 17.5 5C17.058 5 16.634 5.17559 16.3215 5.48816C16.0089 5.80072 15.8333 6.22464 15.8333 6.66667V7.5H15V6.66667C15 6.22464 14.8244 5.80072 14.5118 5.48816C14.1993 5.17559 13.7754 5 13.3333 5C12.8913 5 12.4674 5.17559 12.1548 5.48816C11.8423 5.80072 11.6667 6.22464 11.6667 6.66667V8.38333C11.1337 8.92605 10.8345 9.65599 10.8333 10.4167V18.75C10.8333 19.0815 10.965 19.3995 11.1994 19.6339C11.4339 19.8683 11.7518 20 12.0833 20H18.75C19.0815 20 19.3995 19.8683 19.6339 19.6339C19.8683 19.3995 20 19.0815 20 18.75V10.4167C19.9988 9.65599 19.6997 8.92605 19.1667 8.38333ZM16.6667 6.66667C16.6667 6.44565 16.7545 6.23369 16.9107 6.07741C17.067 5.92113 17.279 5.83333 17.5 5.83333C17.721 5.83333 17.933 5.92113 18.0893 6.07741C18.2455 6.23369 18.3333 6.44565 18.3333 6.66667V7.79167C17.9439 7.60176 17.5166 7.50207 17.0833 7.5H16.6667V6.66667ZM12.5 6.66667C12.5 6.44565 12.5878 6.23369 12.7441 6.07741C12.9004 5.92113 13.1123 5.83333 13.3333 5.83333C13.5543 5.83333 13.7663 5.92113 13.9226 6.07741C14.0789 6.23369 14.1667 6.44565 14.1667 6.66667V7.5H13.75C13.3167 7.50207 12.8895 7.60176 12.5 7.79167V6.66667ZM19.1667 18.75C19.1667 18.8605 19.1228 18.9665 19.0446 19.0446C18.9665 19.1228 18.8605 19.1667 18.75 19.1667H12.0833C11.9728 19.1667 11.8668 19.1228 11.7887 19.0446C11.7106 18.9665 11.6667 18.8605 11.6667 18.75V17.0833C11.6667 16.5308 11.8862 16.0009 12.2769 15.6102C12.6676 15.2195 13.1975 15 13.75 15H17.0833C17.6359 15 18.1658 15.2195 18.5565 15.6102C18.9472 16.0009 19.1667 16.5308 19.1667 17.0833V18.75ZM19.1667 15.05C18.896 14.771 18.5723 14.5491 18.2144 14.3974C17.8566 14.2457 17.472 14.1672 17.0833 14.1667H13.75C13.3613 14.1672 12.9767 14.2457 12.6189 14.3974C12.2611 14.5491 11.9373 14.771 11.6667 15.05V10.4167C11.6667 9.86413 11.8862 9.33423 12.2769 8.94353C12.6676 8.55283 13.1975 8.33333 13.75 8.33333H17.0833C17.6359 8.33333 18.1658 8.55283 18.5565 8.94353C18.9472 9.33423 19.1667 9.86413 19.1667 10.4167V15.05ZM2.91667 7.5C2.80616 7.5 2.70018 7.5439 2.62204 7.62204C2.5439 7.70018 2.5 7.80616 2.5 7.91667V15.4167C2.5 15.5272 2.5439 15.6332 2.62204 15.7113C2.70018 15.7894 2.80616 15.8333 2.91667 15.8333C3.02717 15.8333 3.13315 15.7894 3.21129 15.7113C3.28943 15.6332 3.33333 15.5272 3.33333 15.4167V7.91667C3.33333 7.80616 3.28943 7.70018 3.21129 7.62204C3.13315 7.5439 3.02717 7.5 2.91667 7.5ZM17.0833 9.16667H13.75C13.6395 9.16667 13.5335 9.21056 13.4554 9.2887C13.3772 9.36685 13.3333 9.47283 13.3333 9.58333V10.4167C13.3333 10.5272 13.3772 10.6332 13.4554 10.7113C13.5335 10.7894 13.6395 10.8333 13.75 10.8333C13.8605 10.8333 13.9665 10.7894 14.0446 10.7113C14.1228 10.6332 14.1667 10.5272 14.1667 10.4167V10H17.0833C17.1938 10 17.2998 9.9561 17.378 9.87796C17.4561 9.79982 17.5 9.69384 17.5 9.58333C17.5 9.47283 17.4561 9.36685 17.378 9.2887C17.2998 9.21056 17.1938 9.16667 17.0833 9.16667ZM8.75 5H6.66667V0.833333H7.08333C7.19384 0.833333 7.29982 0.789435 7.37796 0.711294C7.4561 0.633154 7.5 0.527174 7.5 0.416667C7.5 0.30616 7.4561 0.200179 7.37796 0.122039C7.29982 0.0438987 7.19384 0 7.08333 0L2.91667 0C2.80616 0 2.70018 0.0438987 2.62204 0.122039C2.5439 0.200179 2.5 0.30616 2.5 0.416667C2.5 0.527174 2.5439 0.633154 2.62204 0.711294C2.70018 0.789435 2.80616 0.833333 2.91667 0.833333H3.33333V5H1.25C0.918479 5 0.600537 5.1317 0.366116 5.36612C0.131696 5.60054 0 5.91848 0 6.25L0 17.0833C0.000724796 17.3412 0.0811994 17.5926 0.230391 17.8029C0.379583 18.0133 0.590188 18.1724 0.833333 18.2583V18.75C0.833333 19.0815 0.965029 19.3995 1.19945 19.6339C1.43387 19.8683 1.75181 20 2.08333 20C2.41485 20 2.7328 19.8683 2.96722 19.6339C3.20164 19.3995 3.33333 19.0815 3.33333 18.75V18.3333H6.66667V18.75C6.66667 19.0815 6.79836 19.3995 7.03278 19.6339C7.2672 19.8683 7.58515 20 7.91667 20C8.24819 20 8.56613 19.8683 8.80055 19.6339C9.03497 19.3995 9.16667 19.0815 9.16667 18.75V18.2583C9.40981 18.1724 9.62042 18.0133 9.76961 17.8029C9.9188 17.5926 9.99928 17.3412 10 17.0833V6.25C10 5.91848 9.8683 5.60054 9.63388 5.36612C9.39946 5.1317 9.08152 5 8.75 5ZM4.16667 0.833333H5.83333V5H4.16667V0.833333ZM2.5 18.75C2.5 18.8605 2.4561 18.9665 2.37796 19.0446C2.29982 19.1228 2.19384 19.1667 2.08333 19.1667C1.97283 19.1667 1.86685 19.1228 1.78871 19.0446C1.71057 18.9665 1.66667 18.8605 1.66667 18.75V18.3333H2.5V18.75ZM8.33333 18.75C8.33333 18.8605 8.28943 18.9665 8.21129 19.0446C8.13315 19.1228 8.02717 19.1667 7.91667 19.1667C7.80616 19.1667 7.70018 19.1228 7.62204 19.0446C7.5439 18.9665 7.5 18.8605 7.5 18.75V18.3333H8.33333V18.75ZM9.16667 17.0833C9.16667 17.1938 9.12277 17.2998 9.04463 17.378C8.96649 17.4561 8.86051 17.5 8.75 17.5H1.25C1.13949 17.5 1.03351 17.4561 0.955372 17.378C0.877232 17.2998 0.833333 17.1938 0.833333 17.0833V6.25C0.833333 6.13949 0.877232 6.03351 0.955372 5.95537C1.03351 5.87723 1.13949 5.83333 1.25 5.83333H8.75C8.86051 5.83333 8.96649 5.87723 9.04463 5.95537C9.12277 6.03351 9.16667 6.13949 9.16667 6.25V17.0833ZM5 7.5C4.88949 7.5 4.78351 7.5439 4.70537 7.62204C4.62723 7.70018 4.58333 7.80616 4.58333 7.91667V15.4167C4.58333 15.5272 4.62723 15.6332 4.70537 15.7113C4.78351 15.7894 4.88949 15.8333 5 15.8333C5.11051 15.8333 5.21649 15.7894 5.29463 15.7113C5.37277 15.6332 5.41667 15.5272 5.41667 15.4167V7.91667C5.41667 7.80616 5.37277 7.70018 5.29463 7.62204C5.21649 7.5439 5.11051 7.5 5 7.5ZM7.08333 7.5C6.97283 7.5 6.86685 7.5439 6.7887 7.62204C6.71057 7.70018 6.66667 7.80616 6.66667 7.91667V15.4167C6.66667 15.5272 6.71057 15.6332 6.7887 15.7113C6.86685 15.7894 6.97283 15.8333 7.08333 15.8333C7.19384 15.8333 7.29982 15.7894 7.37796 15.7113C7.4561 15.6332 7.5 15.5272 7.5 15.4167V7.91667C7.5 7.80616 7.4561 7.70018 7.37796 7.62204C7.29982 7.5439 7.19384 7.5 7.08333 7.5Z" fill="black"/>
</svg>
