<svg width="27" height="20" viewBox="0 0 27 20" fill="none" xmlns="http://www.w3.org/2000/svg">
<path fill-rule="evenodd" clip-rule="evenodd" d="M27 4C27 2.93867 26.5734 1.92133 25.8134 1.172C25.0547 0.42133 24.0246 0 22.95 0C18.275 0 8.72505 0 4.05 0C2.9754 0 1.94535 0.42133 1.18665 1.172C0.426597 1.92133 0 2.93867 0 4C0 7.25867 0 12.7413 0 16C0 17.0613 0.426597 18.0787 1.18665 18.828C1.94535 19.5787 2.9754 20 4.05 20C8.72505 20 18.275 20 22.95 20C24.0246 20 25.0547 19.5787 25.8134 18.828C26.5734 18.0787 27 17.0613 27 16C27 12.7413 27 7.25867 27 4ZM24.1191 3.33333C24.061 3.432 23.9895 3.52533 23.9045 3.60933L18.7839 8.66667L21.2045 11.0573C21.731 11.5773 21.731 12.4227 21.2045 12.9427C20.678 13.4627 19.822 13.4627 19.2955 12.9427L16.875 10.552L14.4545 12.9427C13.928 13.464 13.072 13.464 12.5455 12.9427L10.125 10.552L7.70445 12.9427C7.17795 13.4627 6.32205 13.4627 5.79555 12.9427C5.26905 12.4227 5.26905 11.5773 5.79555 11.0573L8.2161 8.66667L3.09555 3.60933C3.0159 3.52933 2.94571 3.44134 2.88766 3.344L2.8809 3.33333C2.76345 3.53467 2.7 3.764 2.7 4C2.7 7.25867 2.7 12.7413 2.7 16C2.7 16.3533 2.84175 16.6933 3.09555 16.9427C3.348 17.1933 3.69225 17.3333 4.05 17.3333H22.95C23.3078 17.3333 23.652 17.1933 23.9045 16.9427C24.1583 16.6933 24.3 16.3533 24.3 16C24.3 12.7413 24.3 7.25867 24.3 4C24.3 3.764 24.2365 3.53467 24.1191 3.33333ZM13.5 10.1147L21.0411 2.66667H5.9589L13.5 10.1147Z" fill="#7A7575"/>
</svg>
