<svg width="15" height="15" viewBox="0 0 15 15" fill="none" xmlns="http://www.w3.org/2000/svg">
<path fill-rule="evenodd" clip-rule="evenodd" d="M0.959156 11.1698L0.0225264 14.3101C-0.030045 14.4856 0.0112627 14.676 0.131426 14.8144C0.251589 14.9533 0.433983 15.0209 0.615301 14.9941L4.57425 14.4067C5.47279 14.7881 6.46199 15 7.50001 15C11.6392 15 15 11.6392 15 7.5C15 3.36081 11.6392 0 7.50001 0C3.36082 0 0 3.36081 0 7.5C0 8.83252 0.348684 10.0846 0.959156 11.1698ZM4.27116 6.43731C3.67892 6.43731 3.19827 6.91796 3.19827 7.51019C3.19827 8.10242 3.67892 8.58308 4.27116 8.58308C4.86339 8.58308 5.34404 8.10242 5.34404 7.51019C5.34404 6.91796 4.86339 6.43731 4.27116 6.43731ZM7.48981 6.43731C6.89758 6.43731 6.41692 6.91796 6.41692 7.51019C6.41692 8.10242 6.89758 8.58308 7.48981 8.58308C8.08204 8.58308 8.56269 8.10242 8.56269 7.51019C8.56269 6.91796 8.08204 6.43731 7.48981 6.43731ZM10.7085 6.43731C10.1162 6.43731 9.63558 6.91796 9.63558 7.51019C9.63558 8.10242 10.1162 8.58308 10.7085 8.58308C11.3007 8.58308 11.7813 8.10242 11.7813 7.51019C11.7813 6.91796 11.3007 6.43731 10.7085 6.43731Z" fill="#58565D"/>
</svg>
