<svg width="18" height="12" viewBox="0 0 18 12" fill="none" xmlns="http://www.w3.org/2000/svg">
<path d="M2.7532 4.09372H2.74908C2.74908 2.52622 3.81784 1.19029 5.31156 0.715287C5.71781 0.584662 6.04906 1.04779 5.77406 1.36247L4.93858 2.31247H5.56875C5.74375 2.31247 5.88125 2.4431 5.88125 2.60935C5.88125 2.7756 5.7375 2.90622 5.56875 2.90622H7.75C8.4375 2.90622 9 3.4406 9 4.09372H13.375V3.48216C13.375 3.16747 13.6437 2.90622 13.9812 2.90622H16.5125C16.85 2.90622 17.125 3.16747 17.1313 3.48216V3.54747C17.1313 3.73836 17.0886 3.92397 17.0072 4.09372H15.875V4.09966C15.5312 4.09966 15.25 4.36685 15.25 4.69341C15.25 4.96654 15.4437 5.18029 15.7062 5.25154L15.7202 5.25142L15.727 5.2513C15.1744 5.60042 14.5706 5.87681 13.9438 6.1006C13.6363 6.20985 13.3482 6.3568 13.0854 6.53516L13.4492 6.87307C13.8809 6.61681 14.391 6.46872 14.9375 6.46872C16.4908 6.46872 17.75 7.66495 17.75 9.1406C17.75 10.6162 16.4908 11.8125 14.9375 11.8125C13.7129 11.8125 12.6711 11.069 12.2851 10.0312H11.3498C11.1361 10.384 10.7179 10.625 10.25 10.625H7.75C7.07294 10.625 6.5 10.055 6.5 9.43747C6.5 9.01158 6.4205 8.62083 6.28581 8.24997C6.21206 8.04697 6.12181 7.84985 6.01906 7.65622H6.0125C5.95875 7.56045 5.901 7.4667 5.83944 7.37526L5.4485 7.72534C5.71875 8.13574 5.875 8.62083 5.875 9.1406C5.875 10.6162 4.6158 11.8125 3.0625 11.8125C1.5092 11.8125 0.25 10.6162 0.25 9.1406C0.25 7.66495 1.5092 6.46872 3.0625 6.46872C3.61631 6.46872 4.13274 6.62078 4.56804 6.88334L5.00927 6.4727C4.76644 6.27801 4.49792 6.1085 4.20625 5.96997L3.86874 5.80966L3.86369 5.80729C3.9443 5.64763 4 5.47027 4 5.28122C4 4.62911 3.43924 4.09539 2.7532 4.09372ZM12.0125 7.65622H11.9981C11.879 7.84349 11.7813 8.04228 11.705 8.24997C11.6327 8.44645 11.5796 8.65093 11.5456 8.86142H12.1402C12.1851 8.45001 12.3284 8.06633 12.5472 7.73193L12.1792 7.40721C12.1202 7.48796 12.0645 7.57102 12.0125 7.65622ZM14.8416 8.25455C14.3689 8.30021 14 8.67949 14 9.1406C14 9.63246 14.4197 10.0312 14.9375 10.0312C15.4553 10.0312 15.875 9.63246 15.875 9.1406C15.875 8.64874 15.4553 8.24997 14.9375 8.24997H14.9314C14.9011 8.25015 14.8712 8.2517 14.8416 8.25455ZM3.09895 8.25063C3.08686 8.25021 3.07471 8.24997 3.06251 8.24997C2.54474 8.24997 2.125 8.64874 2.125 9.1406C2.125 9.63246 2.54474 10.0312 3.06251 10.0312C3.58027 10.0312 4 9.63246 4 9.1406C4 9.07915 3.99344 9.01912 3.98096 8.96111C3.89589 8.56621 3.53571 8.26648 3.09895 8.25063ZM4.63124 4.68747C4.63124 5.01404 4.91249 5.28122 5.25625 5.28122H5.88125V4.09372H5.25625C4.91249 4.09372 4.63124 4.36091 4.63124 4.68747ZM6.94194 8.24997C7.05681 8.61834 7.125 9.01152 7.125 9.43747C7.125 9.73536 7.42675 10.0312 7.75 10.0312H10.25C10.6192 10.0312 10.875 9.75798 10.875 9.50279V9.43747C10.875 9.03058 10.9322 8.63086 11.049 8.24997H6.94194Z" fill="#212121"/>
</svg>
