<svg width="20" height="20" viewBox="0 0 20 20" fill="none" xmlns="http://www.w3.org/2000/svg">
<path d="M17.6997 18.0531C17.735 18.0238 17.7634 17.987 17.7829 17.9454C17.8024 17.9038 17.8125 17.8584 17.8125 17.8125V5.31251C17.8125 5.2428 17.7892 5.1751 17.7462 5.12017C17.7033 5.06525 17.6433 5.02625 17.5756 5.00938L12.77 3.80813C12.8795 3.15993 12.7466 2.49411 12.3969 1.93751C12.1398 1.53489 11.7855 1.20351 11.3666 0.973963C10.9477 0.744413 10.4777 0.624084 10 0.624084C9.52232 0.624084 9.05234 0.744413 8.63343 0.973963C8.21452 1.20351 7.86018 1.53489 7.60313 1.93751C7.35918 2.3237 7.21805 2.76587 7.19317 3.22199C7.16828 3.6781 7.26046 4.133 7.46094 4.54344L8.01437 5.68438L7.46313 5.92501L2.55688 5.00563C2.51182 4.99729 2.46548 4.99896 2.42114 5.01053C2.3768 5.02209 2.33555 5.04326 2.3003 5.07254C2.26506 5.10182 2.23668 5.1385 2.21719 5.17997C2.1977 5.22144 2.18756 5.26668 2.1875 5.31251V17.8125C2.18752 17.8822 2.21084 17.9499 2.25377 18.0048C2.29669 18.0598 2.35674 18.0988 2.42437 18.1156L7.42437 19.3656C7.49127 19.3825 7.56186 19.3765 7.625 19.3488L12.5369 17.2L17.4431 18.1194C17.4881 18.1278 17.5344 18.1262 17.5788 18.1148C17.6231 18.1033 17.6644 18.0823 17.6997 18.0531ZM8.1325 2.26938C8.33356 1.95672 8.60991 1.69954 8.9362 1.52144C9.26249 1.34333 9.62827 1.25 10 1.25C10.3717 1.25 10.7375 1.34333 11.0638 1.52144C11.3901 1.69954 11.6664 1.95672 11.8675 2.26938C12.057 2.56488 12.1667 2.90445 12.1858 3.25496C12.205 3.60548 12.133 3.95498 11.9769 4.26938L10 8.34657L8.02312 4.27063C7.86675 3.95607 7.79463 3.60634 7.8138 3.25558C7.83297 2.90482 7.94278 2.56502 8.1325 2.26938ZM17.1875 17.4375L12.8125 16.6156V7.18751H12.1875V16.6706L7.4725 18.7331L2.8125 17.5684V5.68751L7.1875 6.50938V15.9375H7.8125V6.45438L8.28719 6.24719L9.71875 9.19907C9.74434 9.2519 9.78429 9.29646 9.83403 9.32764C9.88378 9.35882 9.94129 9.37535 10 9.37535C10.0587 9.37535 10.1162 9.35882 10.166 9.32764C10.2157 9.29646 10.2557 9.2519 10.2812 9.19907L12.5394 4.54282C12.5609 4.49844 12.5759 4.45251 12.5947 4.40751L17.1875 5.55657V17.4375Z" fill="black"/>
<path d="M10.0001 4.6875C10.2473 4.6875 10.489 4.61419 10.6945 4.47684C10.9001 4.33949 11.0603 4.14426 11.1549 3.91585C11.2495 3.68745 11.2743 3.43611 11.226 3.19364C11.1778 2.95116 11.0588 2.72843 10.8839 2.55362C10.7091 2.3788 10.4864 2.25975 10.2439 2.21152C10.0014 2.16329 9.75011 2.18804 9.5217 2.28265C9.29329 2.37726 9.09807 2.53748 8.96072 2.74304C8.82337 2.9486 8.75006 3.19027 8.75006 3.4375C8.75006 3.76902 8.88175 4.08696 9.11617 4.32138C9.35059 4.5558 9.66853 4.6875 10.0001 4.6875ZM10.0001 2.8125C10.1237 2.8125 10.2445 2.84916 10.3473 2.91783C10.4501 2.98651 10.5302 3.08412 10.5775 3.19832C10.6248 3.31253 10.6372 3.43819 10.613 3.55943C10.5889 3.68067 10.5294 3.79203 10.442 3.87944C10.3546 3.96685 10.2432 4.02638 10.122 4.05049C10.0007 4.07461 9.87508 4.06223 9.76088 4.01493C9.64667 3.96762 9.54906 3.88751 9.48039 3.78473C9.41171 3.68195 9.37506 3.56111 9.37506 3.4375C9.37506 3.27174 9.4409 3.11277 9.55811 2.99556C9.67532 2.87835 9.83429 2.8125 10.0001 2.8125ZM6.25006 14.375V13.125H6.56256C6.62435 13.125 6.68476 13.1067 6.73614 13.0723C6.78751 13.038 6.82756 12.9892 6.8512 12.9321C6.87485 12.875 6.88104 12.8122 6.86899 12.7516C6.85694 12.6909 6.82718 12.6353 6.78349 12.5916L5.22099 11.0291C5.16239 10.9705 5.08292 10.9376 5.00006 10.9376C4.91719 10.9376 4.83772 10.9705 4.77912 11.0291L3.21662 12.5916C3.17293 12.6353 3.14318 12.6909 3.13112 12.7516C3.11907 12.8122 3.12526 12.875 3.14891 12.9321C3.17255 12.9892 3.2126 13.038 3.26397 13.0723C3.31535 13.1067 3.37576 13.125 3.43756 13.125H3.75006V14.375C3.75006 14.4579 3.78298 14.5374 3.84158 14.596C3.90019 14.6546 3.97968 14.6875 4.06256 14.6875H5.93756C6.02044 14.6875 6.09992 14.6546 6.15853 14.596C6.21713 14.5374 6.25006 14.4579 6.25006 14.375ZM5.00006 11.6919L5.80818 12.5H4.19193L5.00006 11.6919ZM5.62506 14.0625H4.37506V13.125H5.62506V14.0625ZM10.221 12.9041C10.1624 12.8455 10.0829 12.8126 10.0001 12.8126C9.91719 12.8126 9.83772 12.8455 9.77912 12.9041L8.21662 14.4666C8.17293 14.5103 8.14318 14.5659 8.13112 14.6266C8.11907 14.6872 8.12526 14.75 8.14891 14.8071C8.17255 14.8642 8.2126 14.913 8.26397 14.9473C8.31535 14.9817 8.37576 15 8.43756 15H8.75006V16.25C8.75006 16.3329 8.78298 16.4124 8.84158 16.471C8.90019 16.5296 8.97968 16.5625 9.06256 16.5625H10.9376C11.0204 16.5625 11.0999 16.5296 11.1585 16.471C11.2171 16.4124 11.2501 16.3329 11.2501 16.25V15H11.5626C11.6244 15 11.6848 14.9817 11.7361 14.9473C11.7875 14.913 11.8276 14.8642 11.8512 14.8071C11.8749 14.75 11.881 14.6872 11.869 14.6266C11.8569 14.5659 11.8272 14.5103 11.7835 14.4666L10.221 12.9041ZM10.0001 13.5669L10.8082 14.375H9.19193L10.0001 13.5669ZM10.6251 15.9375H9.37506V15H10.6251V15.9375ZM14.7791 7.27906L13.2166 8.84156C13.1729 8.88527 13.1432 8.94094 13.1311 9.00155C13.1191 9.06216 13.1253 9.12499 13.1489 9.18208C13.1726 9.23917 13.2126 9.28797 13.264 9.32231C13.3154 9.35665 13.3758 9.37499 13.4376 9.375H13.7501V10.625C13.7501 10.7079 13.783 10.7874 13.8416 10.846C13.9002 10.9046 13.9797 10.9375 14.0626 10.9375H15.9376C16.0204 10.9375 16.0999 10.9046 16.1585 10.846C16.2171 10.7874 16.2501 10.7079 16.2501 10.625V9.375H16.5626C16.6244 9.37499 16.6848 9.35665 16.7361 9.32231C16.7875 9.28797 16.8276 9.23917 16.8512 9.18208C16.8749 9.12499 16.881 9.06216 16.869 9.00155C16.8569 8.94094 16.8272 8.88527 16.7835 8.84156L15.221 7.27906C15.1624 7.22048 15.0829 7.18757 15.0001 7.18757C14.9172 7.18757 14.8377 7.22048 14.7791 7.27906ZM15.6251 10.3125H14.3751V9.375H15.6251V10.3125ZM14.1919 8.75L15.0001 7.94188L15.8082 8.75H14.1919Z" fill="black"/>
<path d="M5.3125 6.875H4.6875V10.3125H5.3125V6.875Z" fill="black"/>
<path d="M5.3125 15.3125H4.6875V17.1875C4.6875 17.2704 4.72042 17.3499 4.77903 17.4085C4.83763 17.4671 4.91712 17.5 5 17.5H8.4375V16.875H5.3125V15.3125Z" fill="black"/>
<path d="M15.3125 11.5625H14.6875V16.25H15.3125V11.5625Z" fill="black"/>
<path d="M10.3125 10H9.6875V12.1875H10.3125V10Z" fill="black"/>
<path d="M14.6875 6.5625H15.3125V5.9375C15.3125 5.85462 15.2796 5.77513 15.221 5.71653C15.1624 5.65792 15.0829 5.625 15 5.625H12.8125V6.25H14.6875V6.5625Z" fill="black"/>
</svg>
