<svg width="24" height="28" viewBox="0 0 24 28" fill="none" xmlns="http://www.w3.org/2000/svg">
<path d="M21 9H20V8C20 5.87827 19.1571 3.84344 17.6569 2.34315C16.1566 0.842855 14.1217 0 12 0C9.87827 0 7.84344 0.842855 6.34315 2.34315C4.84285 3.84344 4 5.87827 4 8V9H3C2.20435 9 1.44129 9.31607 0.87868 9.87868C0.316071 10.4413 0 11.2044 0 12V25C0 25.7956 0.316071 26.5587 0.87868 27.1213C1.44129 27.6839 2.20435 28 3 28H21C21.7956 28 22.5587 27.6839 23.1213 27.1213C23.6839 26.5587 24 25.7956 24 25V12C24 11.2044 23.6839 10.4413 23.1213 9.87868C22.5587 9.31607 21.7956 9 21 9ZM6 8C6 6.4087 6.63214 4.88258 7.75736 3.75736C8.88258 2.63214 10.4087 2 12 2C13.5913 2 15.1174 2.63214 16.2426 3.75736C17.3679 4.88258 18 6.4087 18 8V9H6V8ZM22 25C22 25.2652 21.8946 25.5196 21.7071 25.7071C21.5196 25.8946 21.2652 26 21 26H3C2.73478 26 2.48043 25.8946 2.29289 25.7071C2.10536 25.5196 2 25.2652 2 25V12C2 11.7348 2.10536 11.4804 2.29289 11.2929C2.48043 11.1054 2.73478 11 3 11H21C21.2652 11 21.5196 11.1054 21.7071 11.2929C21.8946 11.4804 22 11.7348 22 12V25Z" fill="#7A7575"/>
<path d="M11.9999 14C11.2931 13.9987 10.6086 14.2475 10.0677 14.7025C9.52673 15.1575 9.16428 15.7892 9.04451 16.4858C8.92474 17.1824 9.05537 17.899 9.41326 18.5085C9.77115 19.118 10.3332 19.5812 10.9999 19.816V22C10.9999 22.2652 11.1053 22.5196 11.2928 22.7071C11.4803 22.8946 11.7347 23 11.9999 23C12.2651 23 12.5195 22.8946 12.707 22.7071C12.8945 22.5196 12.9999 22.2652 12.9999 22V19.816C13.6666 19.5812 14.2286 19.118 14.5865 18.5085C14.9444 17.899 15.0751 17.1824 14.9553 16.4858C14.8355 15.7892 14.4731 15.1575 13.9321 14.7025C13.3912 14.2475 12.7067 13.9987 11.9999 14ZM11.9999 18C11.8021 18 11.6088 17.9414 11.4443 17.8315C11.2799 17.7216 11.1517 17.5654 11.076 17.3827C11.0003 17.2 10.9805 16.9989 11.0191 16.8049C11.0577 16.6109 11.1529 16.4328 11.2928 16.2929C11.4326 16.153 11.6108 16.0578 11.8048 16.0192C11.9988 15.9806 12.1999 16.0004 12.3826 16.0761C12.5653 16.1518 12.7215 16.28 12.8314 16.4444C12.9412 16.6089 12.9999 16.8022 12.9999 17C12.9999 17.2652 12.8945 17.5196 12.707 17.7071C12.5195 17.8946 12.2651 18 11.9999 18Z" fill="#7A7575"/>
</svg>
