<svg width="16" height="16" viewBox="0 0 16 16" fill="none" xmlns="http://www.w3.org/2000/svg">
<path d="M10.59 1.45996H5.40996C5.0254 1.45996 4.65658 1.61273 4.38466 1.88466C4.11273 2.15658 3.95996 2.5254 3.95996 2.90996V13.09C3.95996 13.4745 4.11273 13.8433 4.38466 14.1153C4.65658 14.3872 5.0254 14.54 5.40996 14.54H10.59C10.9745 14.54 11.3433 14.3872 11.6153 14.1153C11.8872 13.8433 12.04 13.4745 12.04 13.09V2.90996C12.04 2.5254 11.8872 2.15658 11.6153 1.88466C11.3433 1.61273 10.9745 1.45996 10.59 1.45996ZM10.96 13.09C10.96 13.1881 10.921 13.2822 10.8516 13.3516C10.7822 13.421 10.6881 13.46 10.59 13.46H5.40996C5.31183 13.46 5.21772 13.421 5.14833 13.3516C5.07894 13.2822 5.03996 13.1881 5.03996 13.09V2.90996C5.03996 2.81183 5.07894 2.71772 5.14833 2.64833C5.21772 2.57894 5.31183 2.53996 5.40996 2.53996H10.59C10.6881 2.53996 10.7822 2.57894 10.8516 2.64833C10.921 2.71772 10.96 2.81183 10.96 2.90996V13.09Z" fill="#58565D"/>
<path d="M8.49996 11.96H7.49996C7.35674 11.96 7.21939 12.0169 7.11812 12.1181C7.01685 12.2194 6.95996 12.3567 6.95996 12.5C6.95996 12.6432 7.01685 12.7805 7.11812 12.8818C7.21939 12.9831 7.35674 13.04 7.49996 13.04H8.49996C8.64318 13.04 8.78053 12.9831 8.8818 12.8818C8.98307 12.7805 9.03996 12.6432 9.03996 12.5C9.03996 12.3567 8.98307 12.2194 8.8818 12.1181C8.78053 12.0169 8.64318 11.96 8.49996 11.96Z" fill="#58565D"/>
</svg>
