<svg width="20" height="20" viewBox="0 0 20 20" fill="none" xmlns="http://www.w3.org/2000/svg">
<path d="M10 1.66669C8.38373 1.66976 6.80324 2.14278 5.45102 3.02814C4.09881 3.91349 3.03325 5.17297 2.38412 6.65316C1.73499 8.13335 1.53031 9.77037 1.79502 11.3648C2.05973 12.9593 2.7824 14.4423 3.875 15.6334C4.65535 16.4792 5.60245 17.1543 6.65661 17.616C7.71078 18.0778 8.84915 18.3161 10 18.3161C11.1508 18.3161 12.2892 18.0778 13.3434 17.616C14.3975 17.1543 15.3446 16.4792 16.125 15.6334C17.2176 14.4423 17.9403 12.9593 18.205 11.3648C18.4697 9.77037 18.265 8.13335 17.6159 6.65316C16.9668 5.17297 15.9012 3.91349 14.549 3.02814C13.1968 2.14278 11.6163 1.66976 10 1.66669ZM10 16.6667C8.27372 16.6641 6.61576 15.9919 5.375 14.7917C5.7517 13.8746 6.39253 13.0903 7.21604 12.5383C8.03956 11.9863 9.00859 11.6915 10 11.6915C10.9914 11.6915 11.9604 11.9863 12.784 12.5383C13.6075 13.0903 14.2483 13.8746 14.625 14.7917C13.3842 15.9919 11.7263 16.6641 10 16.6667ZM8.33333 8.33335C8.33333 8.00372 8.43108 7.68149 8.61422 7.4074C8.79735 7.13332 9.05765 6.9197 9.36219 6.79355C9.66674 6.66741 10.0018 6.6344 10.3252 6.69871C10.6485 6.76302 10.9454 6.92176 11.1785 7.15484C11.4116 7.38793 11.5703 7.6849 11.6346 8.0082C11.699 8.33151 11.6659 8.66662 11.5398 8.97116C11.4137 9.2757 11.2 9.536 10.926 9.71914C10.6519 9.90227 10.3296 10 10 10C9.55797 10 9.13405 9.82443 8.82149 9.51187C8.50893 9.1993 8.33333 8.77538 8.33333 8.33335ZM15.7583 13.3334C15.0138 12.0598 13.8678 11.0692 12.5 10.5167C12.9243 10.0356 13.2008 9.44224 13.2962 8.80788C13.3917 8.17353 13.3021 7.52511 13.0381 6.94043C12.7742 6.35575 12.3472 5.85965 11.8083 5.51166C11.2694 5.16366 10.6415 4.97856 10 4.97856C9.35851 4.97856 8.73064 5.16366 8.19174 5.51166C7.65285 5.85965 7.22581 6.35575 6.96187 6.94043C6.69794 7.52511 6.60832 8.17353 6.70377 8.80788C6.79923 9.44224 7.07569 10.0356 7.5 10.5167C6.13217 11.0692 4.98622 12.0598 4.24167 13.3334C3.64829 12.3226 3.33477 11.1721 3.33333 10C3.33333 8.23191 4.03571 6.53622 5.28596 5.28598C6.5362 4.03573 8.23189 3.33335 10 3.33335C11.7681 3.33335 13.4638 4.03573 14.714 5.28598C15.9643 6.53622 16.6667 8.23191 16.6667 10C16.6652 11.1721 16.3517 12.3226 15.7583 13.3334Z" fill="#7A7575"/>
</svg>
