<svg width="16" height="16" viewBox="0 0 16 16" fill="none" xmlns="http://www.w3.org/2000/svg">
<g clip-path="url(#clip0_382_258)">
<path fill-rule="evenodd" clip-rule="evenodd" d="M11.2663 4.79999C11.2663 3.03519 9.8015 1.59999 7.9999 1.59999C6.1983 1.59999 4.7335 3.03519 4.7335 4.79999C4.7335 6.56479 6.1983 7.99999 7.9999 7.99999C9.8015 7.99999 11.2663 6.56479 11.2663 4.79999ZM14.3567 16H12.8999C12.7937 16.0011 12.6884 15.9814 12.5898 15.9418C12.4913 15.9022 12.4015 15.8436 12.3257 15.7693C12.2498 15.695 12.1894 15.6065 12.1477 15.5088C12.1061 15.4111 12.0842 15.3062 12.0831 15.2C12.0831 14.7584 12.4487 14.4 12.8991 14.4H13.2503C13.8151 14.4 14.2327 13.8424 14.0183 13.3296C13.0295 10.9584 10.7063 9.59999 7.9999 9.59999C5.2927 9.59999 2.97029 10.9584 1.98149 13.3296C1.76709 13.8424 2.18471 14.4 2.74951 14.4H3.0999C3.5511 14.4 3.9167 14.7584 3.9167 15.2C3.9167 15.6416 3.55111 16 3.10071 16H1.64309C0.622292 16 -0.180892 15.0856 0.0351081 14.1088C0.629508 11.4216 2.4863 9.43837 4.9311 8.53837C3.8159 7.65917 3.0999 6.31199 3.0999 4.79999C3.0999 1.95919 5.61831 -0.304819 8.58711 0.0335815C10.7383 0.278381 12.5199 1.95754 12.8431 4.05594C13.1199 5.86474 12.3647 7.51677 11.0687 8.53837C13.5135 9.43837 15.3703 11.4216 15.9647 14.1088C16.1807 15.0856 15.3775 16 14.3567 16ZM10.5487 12.3712C10.8679 12.684 10.8679 13.1904 10.5487 13.5032L7.9999 16L6.2679 14.3032C6.19215 14.2297 6.13194 14.1416 6.09082 14.0444C6.0497 13.9472 6.02852 13.8428 6.02852 13.7372C6.02852 13.6316 6.0497 13.5271 6.09082 13.4299C6.13194 13.3326 6.19215 13.2447 6.2679 13.1712C6.42265 13.0213 6.62964 12.9375 6.84509 12.9375C7.06054 12.9375 7.26756 13.0213 7.42231 13.1712L7.9999 13.7376L9.39351 12.3712C9.71351 12.0592 10.2303 12.0592 10.5487 12.3712Z" fill="#58565D"/>
</g>
<defs>
<clipPath id="clip0_382_258">
<rect width="16" height="16" fill="white"/>
</clipPath>
</defs>
</svg>
