<svg width="25" height="25" viewBox="0 0 25 25" fill="none" xmlns="http://www.w3.org/2000/svg">
<path opacity="0.3" d="M17.1874 22.1875L24.4791 17.8125L7.81242 7.8125L0.520752 12.1875L17.1874 22.1875Z" fill="#262626"/>
<path d="M13.3282 18.7062L15.9428 17.8375L14.1407 16.5938L13.2292 17.65L13.3282 18.7062Z" fill="#2D3134"/>
<path opacity="0.29" d="M13.3282 18.7062L15.9428 17.8375L14.1407 16.5938L13.2292 17.65L13.3282 18.7062Z" fill="black"/>
<path d="M3.35929 12.625L5.97388 11.75L4.16659 10.5062L3.25513 11.5625L3.35929 12.625Z" fill="#2D3134"/>
<path opacity="0.29" d="M3.35929 12.625L5.97388 11.75L4.16659 10.5062L3.25513 11.5625L3.35929 12.625Z" fill="black"/>
<path d="M15.2812 17.2687C14.9322 17.0562 14.6145 17.0312 14.3801 17.1625L13.8853 17.4812C13.6353 17.6187 13.4739 17.925 13.4739 18.375C13.4739 19.2437 14.0624 20.3062 14.7864 20.7375C15.1458 20.95 15.4687 20.975 15.7083 20.8375C15.7083 20.8375 16.1978 20.525 16.2499 20.4875C16.4635 20.3375 16.5937 20.0437 16.5937 19.6375C16.5937 18.7625 16.0051 17.7062 15.2812 17.2687Z" fill="#2D3134"/>
<path opacity="0.29" d="M15.7239 20.8312C15.8176 20.775 16.203 20.525 16.2499 20.4875C16.4635 20.3375 16.5937 20.0437 16.5937 19.6375C16.5937 19.2875 16.4999 18.9062 16.3385 18.55L15.8437 18.8687C16.0051 19.225 16.0989 19.6062 16.0989 19.9562C16.1041 20.3812 15.9583 20.6875 15.7239 20.8312Z" fill="black"/>
<path d="M16.1042 19.9563C16.1042 20.825 15.5157 21.1813 14.7917 20.7438C14.0678 20.3063 13.4792 19.25 13.4792 18.3813C13.4792 17.5125 14.0678 17.1563 14.7917 17.5938C15.5157 18.025 16.1042 19.0875 16.1042 19.9563Z" fill="#2D3134"/>
<path d="M15.8177 19.7812C15.8177 20.4625 15.3594 20.7375 14.7917 20.4C14.224 20.0625 13.7656 19.2312 13.7656 18.55C13.7656 17.8687 14.224 17.5937 14.7917 17.9312C15.3542 18.275 15.8177 19.1 15.8177 19.7812Z" fill="#E5E5E5"/>
<path d="M15.4635 20.3312C15.6198 20.225 15.7135 20.0187 15.7135 19.725V19.6562L15.1406 19.55L15.4635 20.3312Z" fill="#2D3134"/>
<path d="M15.0052 18.975L15.6042 19.1313C15.4792 18.775 15.2552 18.425 14.9844 18.2L15.0052 18.975Z" fill="#2D3134"/>
<path d="M14.5782 18.7187L14.599 17.9687C14.3282 17.875 14.1042 17.95 13.9792 18.1562L14.5782 18.7187Z" fill="#2D3134"/>
<path d="M13.8699 18.5438V18.6125C13.8699 18.9063 13.9636 19.225 14.1199 19.5188L14.448 19.1313L13.8699 18.5438Z" fill="#2D3134"/>
<path d="M14.7917 19.6375L14.4375 19.9813C14.5469 20.1 14.6667 20.2 14.7917 20.275C14.9167 20.35 15.0365 20.3938 15.1458 20.4L14.7917 19.6375Z" fill="#2D3134"/>
<path opacity="0.11" d="M16.1042 19.9563C16.1042 20.825 15.5157 21.1813 14.7917 20.7438C14.0678 20.3063 13.4792 19.25 13.4792 18.3813C13.4792 17.5125 14.0678 17.1563 14.7917 17.5938C15.5157 18.025 16.1042 19.0875 16.1042 19.9563Z" fill="black"/>
<path d="M5.27604 11.225C4.92708 11.0125 4.60938 10.9875 4.375 11.1188L3.88021 11.4375C3.63021 11.575 3.46875 11.8813 3.46875 12.3313C3.46875 13.2 4.05729 14.2625 4.78125 14.6938C5.14063 14.9063 5.46354 14.9313 5.70312 14.7938C5.70312 14.7938 6.19271 14.4813 6.24479 14.4438C6.45833 14.2938 6.58854 14 6.58854 13.5938C6.58854 12.7188 6 11.6625 5.27604 11.225Z" fill="#2D3134"/>
<path opacity="0.29" d="M5.71875 14.7875C5.8125 14.7312 6.19792 14.4812 6.24479 14.4437C6.45833 14.2937 6.58854 14 6.58854 13.5937C6.58854 13.2437 6.49479 12.8625 6.33333 12.5062L5.83854 12.825C6 13.1812 6.09375 13.5625 6.09375 13.9125C6.09375 14.3375 5.95312 14.6375 5.71875 14.7875Z" fill="black"/>
<path d="M6.09375 13.9062C6.09375 14.775 5.50521 15.1312 4.78125 14.6937C4.05729 14.2562 3.46875 13.2 3.46875 12.3312C3.46875 11.4625 4.05729 11.1062 4.78125 11.5437C5.51042 11.9812 6.09375 13.0375 6.09375 13.9062Z" fill="#2D3134"/>
<path d="M5.80721 13.7375C5.80721 14.4188 5.34888 14.6938 4.78117 14.3563C4.21346 14.0188 3.75513 13.1875 3.75513 12.5063C3.75513 11.825 4.21346 11.55 4.78117 11.8875C5.34888 12.225 5.80721 13.0563 5.80721 13.7375Z" fill="#E5E5E5"/>
<path d="M5.45841 14.2812C5.61466 14.175 5.70841 13.9688 5.70841 13.675V13.6062L5.1355 13.5L5.45841 14.2812Z" fill="#2D3134"/>
<path d="M4.99471 12.925L5.59367 13.0813C5.46867 12.725 5.24471 12.375 4.97388 12.15L4.99471 12.925Z" fill="#2D3134"/>
<path d="M4.56771 12.6688L4.58854 11.9188C4.31771 11.825 4.09375 11.9 3.96875 12.1063L4.56771 12.6688Z" fill="#2D3134"/>
<path d="M3.85938 12.4938V12.5625C3.85938 12.8563 3.95313 13.175 4.10938 13.4688L4.4375 13.0813L3.85938 12.4938Z" fill="#2D3134"/>
<path d="M4.78117 13.5938L4.427 13.9375C4.53638 14.0563 4.65617 14.1562 4.78117 14.2312C4.90617 14.3062 5.02596 14.35 5.13534 14.3562L4.78117 13.5938Z" fill="#2D3134"/>
<path opacity="0.11" d="M6.09375 13.9062C6.09375 14.775 5.50521 15.1312 4.78125 14.6937C4.05729 14.2562 3.46875 13.2 3.46875 12.3312C3.46875 11.4625 4.05729 11.1062 4.78125 11.5437C5.51042 11.9812 6.09375 13.0375 6.09375 13.9062Z" fill="black"/>
<path d="M23.2864 13.375C23.052 13.0812 20.3072 10.4937 19.8124 10.0375C19.3176 9.58749 15.6197 6.57499 13.8645 6.44999C12.1093 6.32499 11.7551 6.39374 11.0364 6.16874C10.3176 5.94374 8.71867 5.46249 6.28117 6.42499C3.84367 7.38749 2.28638 9.20624 2.28638 10.6875C2.28638 11.1875 2.36971 11.6937 2.93221 12.2437C3.02596 12.3375 3.17179 12.4562 3.34367 12.5875C3.33325 12.4937 3.32284 12.4 3.32284 12.3062C3.32284 11.6437 3.64575 11.2187 4.14575 11.2187C4.34367 11.2187 4.55721 11.2875 4.77596 11.4187C5.53117 11.8687 6.14054 12.975 6.14054 13.8812C6.14054 14.0812 6.10929 14.2625 6.052 14.4187L13.3593 18.7125C13.3385 18.5875 13.328 18.4687 13.328 18.35C13.328 17.6875 13.651 17.2625 14.151 17.2625C14.3489 17.2625 14.5624 17.3312 14.7812 17.4625C15.5364 17.9125 16.1458 19.0187 16.1458 19.925C16.1458 20.0375 16.1353 20.1437 16.1197 20.2437C16.401 20.3437 16.7916 20.45 17.2655 20.5062C18.3228 20.6312 20.0572 20.25 21.6093 19.2625C23.3801 18.1375 24.0728 17.0562 24.151 16.4937C24.2395 15.9312 23.5208 13.6687 23.2864 13.375Z" fill="#FFCC00"/>
<path opacity="0.2" d="M10.2135 13.4437C10.2135 13.625 10.0885 13.7 9.93742 13.6125C9.78638 13.5187 9.66138 13.3 9.66138 13.1125C9.66138 12.9312 9.78638 12.8562 9.93742 12.9437C10.0885 13.0375 10.2135 13.2562 10.2135 13.4437Z" fill="black"/>
<path d="M10.2136 13.6L10.3334 13.4375C10.3334 13.4375 9.46364 12.7563 9.38551 12.8938C9.30218 13.025 10.2136 13.6 10.2136 13.6Z" fill="#FFCC00"/>
<path opacity="0.2" d="M14.0782 15.4125C14.0782 15.5937 13.9532 15.6687 13.8022 15.5812C13.6511 15.4875 13.5261 15.2687 13.5261 15.0812C13.5261 14.8937 13.6511 14.825 13.8022 14.9125C13.9532 15.0062 14.0782 15.2312 14.0782 15.4125Z" fill="black"/>
<path d="M14.078 15.575L14.1978 15.4125C14.1978 15.4125 13.328 14.7312 13.2499 14.8687C13.1718 15 14.078 15.575 14.078 15.575Z" fill="#FFCC00"/>
<path d="M6.58325 10.7563L15.427 15.1813C15.427 15.1813 14.5676 11.4313 11.7187 10.05C8.65617 8.56876 6.58325 10.7563 6.58325 10.7563Z" fill="#2D3134"/>
<path d="M7.552 11L10.7135 12.5812L11.8124 10.35C11.7603 10.3187 11.703 10.2937 11.6458 10.2687C10.9635 9.93749 10.276 9.76874 9.59888 9.76874C8.91659 9.76874 8.33325 9.94374 7.86971 10.1562L7.552 11Z" fill="#656565"/>
<path d="M11.3594 12.9L14.8437 14.6438L14.9375 14.2813C14.8229 13.975 14.6667 13.6188 14.474 13.2438C14.0365 12.4 13.3125 11.3125 12.2135 10.5875L11.3594 12.9Z" fill="#656565"/>
<path d="M13.6718 6.58753C13.7499 6.43753 11.2707 6.43753 10.6197 6.53753C9.96865 6.64378 8.88532 6.92503 7.90095 7.57503C7.06761 8.12503 5.79678 9.45003 6.46345 9.61253C7.13011 9.77503 9.7447 8.94378 9.83845 8.87503C9.9322 8.80628 10.7655 7.92503 11.6666 7.41253C12.5676 6.90003 13.6301 6.66253 13.6718 6.58753Z" fill="#2D3134"/>
<path d="M13.2708 6.62499C13.2812 6.61874 13.2969 6.61874 13.3073 6.61249C13.0677 6.59374 12.6979 6.58124 12.2188 6.58124C11.9167 6.58124 11.6198 6.58749 11.3646 6.59999C10.3854 6.89999 9.31771 7.35624 8.6875 7.71874C7.88021 8.18124 7.11458 8.74374 6.73438 9.51874C7.625 9.49374 9.67188 8.84374 9.79688 8.77499C9.8125 8.76249 9.86979 8.70624 9.93229 8.64999C10.224 8.36874 10.9062 7.71874 11.6354 7.31249C12.2187 6.98124 12.875 6.75624 13.2708 6.62499Z" fill="#656565"/>
<path d="M19.4792 10.175C19.9271 10.2125 20.6563 11.025 20.9376 11.2937C21.2188 11.5687 22.1407 12.2812 21.5209 13.15C20.9011 14.0187 19.8855 14.5625 18.948 14.8562C18.0053 15.15 17.2032 15.3062 16.6459 14.7437C16.0886 14.1812 15.7292 13.2812 15.6355 13.0687C15.5417 12.8562 15.3907 12.5875 15.8646 12.125C16.4115 11.5875 18.4115 10.0875 19.4792 10.175Z" fill="#2D3134"/>
<path d="M19.4791 10.2812C19.9061 10.3125 20.5988 11.0875 20.8697 11.35C21.1405 11.6125 22.0155 12.2937 21.4218 13.1187C20.8332 13.9437 19.8697 14.4625 18.9686 14.7437C18.0728 15.0187 17.3072 15.175 16.7811 14.6375C16.2551 14.1 15.9061 13.25 15.8176 13.0437C15.7291 12.8375 15.5832 12.5875 16.0363 12.15C16.5572 11.6312 18.4582 10.2062 19.4791 10.2812Z" fill="#656565"/>
<path opacity="0.2" d="M21.6145 12.4313C21.5468 11.925 21.0572 11.5375 20.8697 11.3563C20.5989 11.0938 19.9062 10.325 19.4791 10.2875C18.4635 10.2063 16.5572 11.6313 16.0364 12.1438C15.7864 12.3875 15.7187 12.575 15.7239 12.725C17.6396 12.063 19.6597 11.9622 21.6145 12.4313Z" fill="black"/>
<path d="M17.9115 18.6813C17.9115 18.6813 18.1719 18.8063 18.3646 18.75C18.5625 18.6938 19.3855 18.3563 19.3855 18.3563C19.3855 18.3563 19.0417 16.9063 18.6615 16.5313C18.2865 16.1563 17.8542 16.2125 17.7657 16.275C17.6823 16.3375 17.8021 18.5 17.9115 18.6813Z" fill="#CC291F"/>
<path d="M23.2709 16.0063C23.2709 16.0063 23.9168 15.575 23.9168 15.3938C23.9168 15.2125 23.6355 13.8375 23.4324 13.55C23.2293 13.2625 23.0574 13.1 22.9793 13.1563C22.8959 13.2063 23.2657 15.9188 23.2709 16.0063Z" fill="#CC291F"/>
<path d="M20.2552 16.5687C20.3333 16.3875 22.1562 15.3062 22.2656 15.3562C22.375 15.4062 22.4219 16.325 22.2916 16.5312C22.1562 16.7375 20.8489 17.6125 20.5937 17.5562C20.3385 17.5 20.1875 16.7312 20.2552 16.5687Z" fill="#2D3134"/>
<path d="M20.5781 16.4688L20.7187 17.325L22.0625 16.4938L21.9219 15.65L20.5781 16.4688Z" fill="#E5E5E5"/>
<path d="M19.3855 18.35L19.5365 18.6625C19.5365 18.6625 20.573 18.2688 21.5365 17.6625C22.5001 17.0625 23.3022 16.35 23.3022 16.35L23.2709 16C23.2709 16 22.5626 16.6812 21.4897 17.3375C20.4688 17.9687 19.3855 18.35 19.3855 18.35Z" fill="#2D3134"/>
<path opacity="0.3" d="M3.40625 9.88123L6.58333 10.7562L15.4271 15.1812L17.7344 17.1062C17.7344 17.1062 13.9427 15.5937 10.5729 13.7125C7.20313 11.8312 3.40625 9.88123 3.40625 9.88123Z" fill="white"/>
<path opacity="0.2" d="M14.8595 14.9125C14.3647 15.7062 13.0522 17.7812 12.9012 17.8562C12.8595 17.8625 12.5418 17.7562 10.5887 16.6437C10.5366 16.55 10.4272 15.7437 10.5001 14.7375C10.573 13.6437 10.9689 12.975 10.9741 12.9687L10.9376 12.9375C10.9324 12.9437 10.5314 13.625 10.4532 14.7375C10.3907 15.6312 10.4689 16.375 10.5314 16.6125C10.2814 16.4687 10.0053 16.3125 9.69804 16.1375C8.14074 15.2375 6.63033 14.3375 6.57824 14.2937C6.47929 14.2125 6.18762 13.4937 6.22408 12.425C6.26054 11.3875 6.60429 10.7937 6.60429 10.7875L6.56783 10.7562C6.56262 10.7625 6.21366 11.3687 6.1772 12.425C6.14074 13.5062 6.43241 14.2437 6.5522 14.3437C6.6147 14.4 8.19804 15.3375 9.70324 16.2062C12.4324 17.7812 12.8282 17.925 12.9064 17.925C12.9168 17.925 12.922 17.925 12.9272 17.9187C13.1199 17.8187 14.8282 15.075 14.9012 14.9562L14.8595 14.9125Z" fill="black"/>
<path d="M15.5469 12.8062C15.0677 11.4812 12.0104 8.46874 9.71354 8.91249L9.70312 8.83124C11.0938 8.56249 12.5937 9.53124 13.3594 10.1312C14.4062 10.95 15.349 12.0562 15.6094 12.775L15.5469 12.8062Z" fill="#2D3134"/>
<path d="M19.7448 10.3563C17.6875 8.66877 14.9375 6.65002 13.5312 6.61252V6.52502C14.9531 6.56252 17.7188 8.58752 19.7865 10.2813L19.7448 10.3563Z" fill="#2D3134"/>
<path d="M7.34369 11.2125L7.49474 10.4938C7.49474 10.4938 7.22911 10.3313 7.13536 10.4188C7.04161 10.5063 6.83849 11.2188 6.99474 11.4375C7.15099 11.6563 7.19786 11.6625 7.19786 11.6625L7.34369 11.2125Z" fill="#2D3134"/>
<path opacity="0.29" d="M24.1563 16.4937C24.1772 16.35 24.1459 16.1062 24.0886 15.8125C23.6042 16.4438 22.7449 17.325 21.3647 18.0812C19.8907 18.8875 18.9376 19.2062 18.4167 19.3375C18.4428 19.65 18.4324 20.175 18.4428 20.475C19.4011 20.3375 20.547 19.9437 21.6095 19.2687C23.3803 18.1375 24.073 17.0625 24.1563 16.4937Z" fill="black"/>
<path d="M3.23951 9.825C3.23951 9.825 3.21347 9.275 3.33326 9.05C3.45306 8.825 3.37493 8.49375 3.23431 8.53125C3.06764 8.575 2.57806 9.375 2.55201 9.55625C2.53639 9.74375 3.23951 9.825 3.23951 9.825Z" fill="#E5E5E5"/>
<path opacity="0.2" d="M3.30737 8.92502C3.30737 9.08127 3.20321 9.27502 3.073 9.35002C2.94279 9.43127 2.83862 9.36252 2.83862 9.20627C2.83862 9.05002 2.94279 8.85627 3.073 8.78127C3.20321 8.70627 3.30737 8.76877 3.30737 8.92502Z" fill="black"/>
<path opacity="0.4" d="M3.15112 9.01877C3.15112 9.10002 3.09383 9.20627 3.02612 9.24377C2.95841 9.28752 2.90112 9.25002 2.90112 9.16877C2.90112 9.08752 2.95841 8.98127 3.02612 8.94377C3.09383 8.90002 3.15112 8.93127 3.15112 9.01877Z" fill="white"/>
<path opacity="0.4" d="M3.16675 9.41252C3.16675 9.49377 3.10946 9.60002 3.04175 9.63752C2.97404 9.67502 2.91675 9.64377 2.91675 9.56252C2.91675 9.48127 2.97404 9.37502 3.04175 9.33752C3.10946 9.30002 3.16675 9.33127 3.16675 9.41252Z" fill="white"/>
<path opacity="0.8" d="M17.9426 17.45L17.9999 17.8437L18.2655 17.8812L19.052 17.5625L18.9218 17.1937L18.2343 17.5L17.9426 17.45Z" fill="white"/>
<path opacity="0.8" d="M23.177 14.6312L23.6562 14.2375L23.7551 14.5687L23.2499 15.0375L23.177 14.6312Z" fill="white"/>
<path d="M7.29175 12.8125V13.4375L7.81258 13.75V13.125L7.29175 12.8125Z" fill="#2D3134"/>
<path d="M8.33333 12.8125L7.8125 12.5V13.125L8.33333 13.4375V12.8125Z" fill="#2D3134"/>
<path d="M7.8125 14.375L8.33333 14.6875V14.0625L7.8125 13.75V14.375Z" fill="#2D3134"/>
<path d="M8.3335 13.4375V14.0625L8.85433 14.375V13.75L8.3335 13.4375Z" fill="#2D3134"/>
<path d="M9.37508 13.4375L8.85425 13.125V13.75L9.37508 14.0625V13.4375Z" fill="#2D3134"/>
<path d="M8.85425 15L9.37508 15.3125V14.6875L8.85425 14.375V15Z" fill="#2D3134"/>
<path d="M9.375 14.0625V14.6875L9.89583 15V14.375L9.375 14.0625Z" fill="#2D3134"/>
<path d="M10.4168 14.0625L9.896 13.75V14.375L10.4168 14.6875V14.0625Z" fill="#2D3134"/>
<path d="M9.896 15.625L10.4168 15.9375V15.3125L9.896 15V15.625Z" fill="#2D3134"/>
<path d="M10.4167 14.6875V15.3125L10.9376 15.625V15L10.4167 14.6875Z" fill="#2D3134"/>
<path d="M11.4585 15.3125V15.9375L11.9793 16.25V15.625L11.4585 15.3125Z" fill="#2D3134"/>
<path d="M11.4583 14.6875L10.9375 14.375V15L11.4583 15.3125V14.6875Z" fill="#2D3134"/>
<path d="M10.9375 16.25L11.4583 16.5625V15.9375L10.9375 15.625V16.25Z" fill="#2D3134"/>
<path d="M12.5 15.9375V16.5625L13.0208 16.875V16.25L12.5 15.9375Z" fill="#2D3134"/>
<path d="M12.5001 15.3125L11.9792 15V15.625L12.5001 15.9375V15.3125Z" fill="#2D3134"/>
<path d="M11.9792 16.875L12.5001 17.1875V16.5625L11.9792 16.25V16.875Z" fill="#2D3134"/>
<path d="M13.8542 9.6875L16.3542 8.1875L15.4167 7.625L12.9688 9.125L13.8542 9.6875Z" fill="#2D3134"/>
<path d="M15.2136 7.02498L13.599 7.99373C13.5261 8.03748 13.4688 8.10623 13.4324 8.19998L13.1199 8.99998L13.849 9.43748L16.1407 8.06248L15.7813 7.25623C15.7449 7.16873 15.6824 7.09998 15.6042 7.06248L15.5105 7.01248C15.422 6.96873 15.3126 6.96873 15.2136 7.02498Z" fill="#E5E5E5"/>
<path opacity="0.11" d="M13.776 8.20623L13.5155 8.06873C13.4843 8.10623 13.4583 8.14373 13.4426 8.19373L13.1301 8.99372L13.8593 9.43122V8.34998C13.8541 8.29373 13.8228 8.23123 13.776 8.20623Z" fill="black"/>
<path opacity="0.29" d="M15.7865 7.2562C15.7656 7.21245 15.7396 7.1687 15.7083 7.13745L14 8.16245C13.9115 8.21245 13.8594 8.32495 13.8594 8.43745V9.43745L16.151 8.06245L15.7865 7.2562Z" fill="black"/>
<path d="M15.7292 8.0625L14.1667 9V8.375L15.5209 7.5625L15.7292 8.0625Z" fill="#2D3134"/>
<path opacity="0.11" d="M18.0522 16.6813C17.9324 16.175 16.9845 15.8813 16.2136 15.0125C15.5105 14.225 14.6355 11.3313 12.0001 10C9.31779 8.65002 7.53133 9.98127 6.1355 10.1688C5.18237 10.2938 3.72404 9.77502 2.65112 9.36877C2.41675 9.81877 2.29175 10.2688 2.29175 10.6875C2.29175 11.1875 2.37508 11.6938 2.93758 12.2438C3.03133 12.3375 3.17716 12.4563 3.34904 12.5875C3.33862 12.4938 3.32821 12.4 3.32821 12.3063C3.32821 11.6438 3.65112 11.2188 4.15112 11.2188C4.34904 11.2188 4.56258 11.2875 4.78133 11.4188C5.53654 11.8688 6.14591 12.975 6.14591 13.8813C6.14591 14.0813 6.11467 14.2625 6.05737 14.4188L13.3647 18.7125C13.3438 18.5875 13.3334 18.4688 13.3334 18.35C13.3334 17.6875 13.6563 17.2625 14.1563 17.2625C14.3542 17.2625 14.5678 17.3313 14.7865 17.4625C15.5417 17.9125 16.1511 19.0188 16.1511 19.925C16.1511 20.0375 16.1407 20.1438 16.1251 20.2438C16.4063 20.3438 16.797 20.45 17.2709 20.5063C17.6042 20.5438 18.0001 20.5375 18.4376 20.475C18.3959 17.9875 18.1407 17.0438 18.0522 16.6813Z" fill="black"/>
</svg>
