<svg width="20" height="20" viewBox="0 0 20 20" fill="none" xmlns="http://www.w3.org/2000/svg">
<path d="M15.9071 11.7722C14.523 11.7722 13.3966 12.8985 13.3966 14.2827C13.3966 15.6669 14.5228 16.7933 15.9071 16.7933C17.2915 16.7933 18.4177 15.6671 18.4177 14.2827C18.4177 12.8983 17.2913 11.7722 15.9071 11.7722ZM15.9071 15.5272C15.2207 15.5272 14.6624 14.969 14.6624 14.2825C14.6624 13.596 15.2207 13.0378 15.9071 13.0378C16.5934 13.0378 17.1517 13.596 17.1517 14.2825C17.1516 14.969 16.5934 15.5272 15.9071 15.5272ZM5.12651 11.7722C3.74214 11.7722 2.61597 12.8985 2.61597 14.2827C2.61597 15.6669 3.74214 16.7933 5.12651 16.7933C6.51089 16.7933 7.63706 15.6669 7.63706 14.2827C7.63706 12.8985 6.51093 11.7722 5.12651 11.7722ZM5.12651 15.5272C4.44003 15.5272 3.88179 14.969 3.88179 14.2825C3.88179 13.596 4.44022 13.0378 5.12651 13.0378C5.8128 13.0378 6.37124 13.596 6.37124 14.2825C6.37124 14.969 5.81304 15.5272 5.12651 15.5272Z" fill="black"/>
<path d="M19.9135 8.731L18.0992 5.62975C18.0434 5.53439 17.9636 5.4553 17.8677 5.40034C17.7719 5.34538 17.6633 5.31647 17.5528 5.31647H12.1097V6.58229H17.1897L18.7342 9.22217V13.6498H17.7848V14.9156H19.3671C19.7167 14.9156 20 14.6323 20 14.2827V9.05061C20.0001 8.93828 19.9703 8.82796 19.9135 8.731ZM6.98315 13.6498H14.0507V14.9156H6.98315V13.6498Z" fill="black"/>
<path d="M12.1097 3.20679H0.63293C0.28332 3.20679 0 3.49011 0 3.83968V14.2827C0 14.6323 0.28332 14.9157 0.63293 14.9157H2.99578V13.6498H1.26582V4.47261H11.4768V14.2827H12.7426V3.83968C12.7426 3.49011 12.4593 3.20679 12.1097 3.20679Z" fill="black"/>
<path d="M12.1096 8.4599H19.3668V9.72572H12.1096V8.4599ZM9.578 5.71729H5.9071C5.55753 5.71729 5.27417 6.0006 5.27417 6.35021C5.27417 6.69978 5.55749 6.98314 5.9071 6.98314H9.578C9.92757 6.98314 10.2109 6.69982 10.2109 6.35021C10.2109 6.0006 9.92761 5.71729 9.578 5.71729ZM9.578 7.97467H3.14343C2.79386 7.97467 2.5105 8.25799 2.5105 8.6076C2.5105 8.95721 2.79382 9.24053 3.14343 9.24053H9.57804C9.92761 9.24053 10.211 8.95721 10.211 8.6076C10.211 8.25799 9.92761 7.97467 9.578 7.97467ZM9.578 10.211H7.84804C7.49847 10.211 7.21511 10.4943 7.21511 10.8439C7.21511 11.1935 7.49843 11.4768 7.84804 11.4768H9.578C9.92757 11.4768 10.2109 11.1935 10.2109 10.8439C10.2109 10.4943 9.92761 10.211 9.578 10.211Z" fill="black"/>
</svg>
